<?xml version="1.0" encoding="UTF-8"?>
<!-- Generated by Pixelmator Pro 3.6.14 -->
<svg width="572" height="572" viewBox="0 0 572 572" xmlns="http://www.w3.org/2000/svg">
    <path id="Path" fill="#00839d" stroke="none" d="M 571.299988 286 C 571.299988 443.511597 443.611633 571.200012 286.099976 571.200012 C 128.588379 571.200012 0.899994 443.511597 0.899994 286 C 0.899994 128.488403 128.588379 0.799988 286.099976 0.799988 C 443.611633 0.799988 571.299988 128.488403 571.299988 286 Z"/>
    <g id="Group">
        <path id="path1" fill="#ffffff" stroke="none" d="M 174.799988 395 C 124 372.099976 98.700012 315.700012 113 263.700012 C 115.399994 254.900024 125.200012 250.299988 133.600006 254.099976 L 133.600006 254.099976 C 140.399994 257.200012 143.799988 264.700012 141.799988 271.900024 C 131.399994 309.900024 150 351.099976 187.100006 367.799988 C 218.299988 381.900024 245.700012 360.799988 287 324.5 C 329.599976 287.099976 377.900024 244.599976 442.200012 270.700012 C 469.099976 281.599976 489.599976 302.599976 500.5 329.900024 C 509.700012 352.900024 511 378.5 504.5 402.299988 C 502.099976 411.099976 492.299988 415.700012 483.900024 411.900024 L 483.900024 411.900024 C 477.099976 408.799988 473.700012 401.299988 475.700012 394.099976 C 480.5 376.700012 479.5 357.900024 472.799988 341 C 464.900024 321.299988 450.099976 306.200012 431 298.400024 C 383.900024 279.299988 346.5 312.099976 306.900024 346.900024 C 267.099976 381.799988 226 418 174.899994 395 Z"/>
        <path id="path2" fill="#ffffff" stroke="none" d="M 55.600006 295.299988 C 54.5 276.400024 56.700012 257.5 62.200012 239 C 64.399994 231.700012 72.399994 227.900024 79.399994 230.700012 L 79.399994 230.700012 C 85.700012 233.200012 89.100006 240.099976 87.100006 246.599976 C 77.799988 278.099976 79.799988 311.599976 93.200012 342.099976 C 106.600006 372.599976 129.799988 396.799988 159.399994 411.299988 C 165.5 414.299988 168.299988 421.400024 165.799988 427.700012 L 165.799988 427.700012 C 163.100006 434.799988 154.899994 438.099976 148.100006 434.799988 C 112.899994 417.599976 85.200012 388.799988 69.299988 352.599976 C 61.200012 334.200012 56.600006 314.799988 55.5 295.299988 Z"/>
        <path id="path3" fill="#ffffff" stroke="none" d="M 104.399994 203.900024 C 104.399994 212.184265 97.684265 218.900024 89.399994 218.900024 C 81.115723 218.900024 74.399994 212.184265 74.399994 203.900024 C 74.399994 195.615723 81.115723 188.900024 89.399994 188.900024 C 97.684265 188.900024 104.399994 195.615723 104.399994 203.900024 Z"/>
    </g>
</svg>
