  <svg
    xmlns="http://www.w3.org/2000/svg"
    width="200"
    height="50"
    viewBox="0 0 1292 282"
  >
    <g fill="#00839d">
      <path d="M455 59h13.5c0 10.5 5 17.7 20.7 17.7s20.9-6.2 20.9-13-1.9-7.1-5.7-8.5c-4.1-1.6-13-2.7-20.1-3.7-8.2-1.1-16.9-3-21.4-5.9-5-3.1-8.1-8.7-8.1-16.5 0-15 12.8-25.4 34.3-25.4 21.5 0 33.2 10.7 33.2 29.4h-13.5c0-12.1-6.6-17.8-19.4-17.8-12.8 0-19.7 5.1-19.7 12.6s1.6 7.4 4.9 8.8c3.6 1.7 12.8 3.2 19.9 4.2 8.6 1.4 16.6 2.7 21.7 5.5 5.6 2.9 8.8 8.6 8.8 16.2 0 13.2-7.7 25.6-35.6 25.6-27.9 0-34.3-14.3-34.3-29.3ZM535.4 69.3c0-9.4 6.6-16.7 23.1-16.7h22.8v-4.4c0-9.2-5.4-13.3-16.2-13.3-10.8 0-14.8 3.6-14.8 10.5s0 1.4.1 2.4h-12.8c-.1-.9-.3-2.5-.3-3.6 0-12.3 10.7-19.7 28.3-19.7s29.7 8.8 29.7 25.1v37.5h-14c.3-3 .6-8.6.6-13.6h-.1c-2 9.1-9.3 14.6-22.9 14.6-13.6 0-23.4-6.7-23.4-18.7Zm45.9-7.1v-1.1h-21.6c-8 0-11.5 2.7-11.5 7.6 0 4.9 5 8.9 13.5 8.9 12.1 0 19.6-5.9 19.6-15.3ZM608.6 25.4h14l-.5 16.5h.1c3.4-11.1 11.3-17.4 25.7-17.4 14.4 0 25.2 8.8 25.2 24.1v38.5h-14V51.7c0-9.7-5.5-15.2-16.6-15.2-11.1 0-19.9 7.4-19.9 20.8v29.8h-14V25.5ZM684.5 55.9c0-18.6 11.6-31.4 29.9-31.4 18.3 0 18.8 4.6 21.3 11.8h.1V.6h14V87h-14c.3-3.6.4-9 .6-15h-.3c-2.4 9.7-10.1 16-22.7 16-17.8 0-29-13-29-32.2Zm51.4 1v-3c0-11-7.6-17.9-19.2-17.9s-18.3 8.2-18.3 19.9 7.1 20.7 18.1 20.7c11 0 19.4-7.7 19.4-19.7ZM764.2 25.4h14l-.5 17.7h.1c2.9-11.1 9.2-18.7 21.9-18.7s20.7 8.7 20.7 24.1c0 15.4-.4 8.9-.6 11.5h-12.7c.2-2.4.5-5.5.5-8.4 0-10.3-4-15.2-12.2-15.2s-17.2 9-17.2 23.7V87h-14V25.4ZM830.6 69.3c0-9.4 6.6-16.7 23.1-16.7h22.8v-4.4c0-9.2-5.4-13.3-16.2-13.3-10.8 0-14.8 3.6-14.8 10.5s0 1.4.1 2.4h-12.8c-.1-.9-.3-2.5-.3-3.6 0-12.3 10.7-19.7 28.3-19.7s29.7 8.8 29.7 25.1v37.5h-14c.3-3 .6-8.6.6-13.6h-.1c-2 9.1-9.3 14.6-22.9 14.6-13.6 0-23.4-6.7-23.4-18.7Zm45.8-7.1v-1.1h-21.6c-8 0-11.5 2.7-11.5 7.6 0 4.9 5 8.9 13.5 8.9 12.1 0 19.6-5.9 19.6-15.3Z" />
    </g>
    <path
      fill="#75dbcc"
      d="M102.6 210.6C59.1 191 37.4 142.7 49.7 98.1 62 53.5 60.2 86.6 67.3 89.9c5.8 2.6 8.7 9.1 7 15.2-8.9 32.6 7 67.8 38.8 82.1 26.7 12.1 50.2-6 85.6-37 36.5-32.1 77.9-68.4 132.9-46 23 9.3 40.6 27.3 50 50.7 7.9 19.7 9 41.6 3.4 62-2.1 7.6-10.5 11.5-17.6 8.3-5.8-2.6-8.7-9.1-7-15.2 4.1-14.9 3.3-31-2.5-45.5-6.7-16.9-19.5-29.8-35.8-36.4-40.3-16.4-72.4 11.8-106.3 41.5-34.1 29.9-69.3 60.9-113 41.2Z"
    />
    <path
      fill="#75dbcc"
      d="M.5 125.3c-.9-16.2 1-32.4 5.7-48.2 1.8-6.2 8.5-9.5 14.5-7.2h.4c5.4 2.2 8.1 8.1 6.5 13.6-8 27-6.2 55.7 5.2 81.8 11.5 26.1 31.4 46.9 56.7 59.3 5.2 2.5 7.6 8.5 5.5 13.9v.4c-2.5 5.9-9.3 8.7-15 5.9-30.2-14.7-54-39.4-67.6-70.5-6.9-15.8-10.9-32.3-11.8-49Z"
    />
    <path
      fill="#00839d"
      d="M42.3 47c0 7.07-5.73 12.8-12.8 12.8S16.7 54.07 16.7 47s5.73-12.8 12.8-12.8S42.3 39.93 42.3 47Z"
    />
    <g fill="#00839d">
      <path d="M932.3 4.5h15V74h40.6v12.5h-55.6v-82ZM998 4h14.3v13.7H998V4Zm.1 20.9h14v61.6h-14V24.9ZM1027 .1h14v86.4h-14V.1ZM1055.8 4h14.3v13.7h-14.3V4Zm.1 20.9h14v61.6h-14V24.9ZM1082.7 68.8c0-9.4 6.6-16.7 23.1-16.7h22.8v-4.4c0-9.2-5.4-13.3-16.2-13.3-10.8 0-14.8 3.6-14.8 10.5s0 1.4.1 2.4h-12.8c-.1-.9-.3-2.5-.3-3.6 0-12.3 10.7-19.7 28.3-19.7s29.7 8.8 29.7 25.1v37.5h-14c.3-3 .6-8.6.6-13.6h-.1c-2 9.1-9.3 14.6-22.9 14.6-13.6 0-23.4-6.7-23.4-18.7Zm45.9-7.1v-1.1H1107c-8 0-11.5 2.7-11.5 7.6 0 4.9 5 8.9 13.5 8.9 12.1 0 19.6-5.9 19.6-15.3ZM1155.9 24.9h14l-.5 16.5h.1c3.4-11.1 11.3-17.4 25.7-17.4 14.4 0 25.2 8.8 25.2 24.1v38.5h-14V51.2c0-9.7-5.5-15.2-16.6-15.2-11.1 0-19.9 7.4-19.9 20.8v29.8h-14V25ZM1231.9 68.8c0-9.4 6.6-16.7 23.1-16.7h22.8v-4.4c0-9.2-5.4-13.3-16.2-13.3-10.8 0-14.8 3.6-14.8 10.5s0 1.4.1 2.4h-12.8c-.1-.9-.3-2.5-.3-3.6 0-12.3 10.7-19.7 28.3-19.7s29.7 8.8 29.7 25.1v37.5h-14c.3-3 .6-8.6.6-13.6h-.1c-2 9.1-9.3 14.6-22.9 14.6-13.6 0-23.4-6.7-23.4-18.7Zm45.9-7.1v-1.1h-21.6c-8 0-11.5 2.7-11.5 7.6 0 4.9 5 8.9 13.5 8.9 12.1 0 19.6-5.9 19.6-15.3Z" />
    </g>
    <g fill="#00839d">
      <path d="M459.1 112h36c21.1 0 31.9 9.1 31.9 23.8 0 14.7-4.6 17.8-14.2 19.6v.2c10 1.5 13.7 8.5 13.7 18.3V194h-15.1v-19.8c0-8.2-3.4-12.7-14.3-12.7H474V194h-15v-82Zm36.3 39.6c12.1 0 17.3-5.2 17.3-14s-5.7-13.2-17.7-13.2h-20.9v27.2h21.3ZM538.4 163.3c0-19.7 12.6-31.9 32.2-31.9s32.3 12.2 32.3 31.9-12.6 31.7-32.3 31.7c-19.7 0-32.2-12.1-32.2-31.7Zm50.5 0c0-12.6-7-20.4-18.3-20.4s-18.2 7.9-18.2 20.4c0 12.5 6.9 20.2 18.2 20.2 11.3 0 18.3-7.7 18.3-20.2ZM612.9 162.8c0-18.6 11.6-31.4 29.9-31.4 18.3 0 18.8 4.6 21.3 11.8h.1v-35.7h14v86.4h-14c.3-3.6.4-9 .6-15h-.3c-2.4 9.7-10.1 16-22.7 16-17.8 0-29-13-29-32.2Zm51.4 1v-3c0-11-7.6-17.9-19.2-17.9s-18.3 8.2-18.3 19.9 7.1 20.7 18.1 20.7c11 0 19.4-7.7 19.4-19.7ZM692.6 132.4h14l-.5 17.7h.1c2.9-11.1 9.2-18.7 21.9-18.7s20.7 8.7 20.7 24.1c0 15.4-.4 8.9-.6 11.5h-12.7c.2-2.4.5-5.5.5-8.4 0-10.3-4-15.2-12.2-15.2s-17.2 9-17.2 23.7V194h-14v-61.6ZM761.3 132.4h14V194h-14v-61.6Zm9.8-23.8h14.6L772.4 126h-11l9.7-17.4ZM853.4 199.8c0 13-12.1 20.7-32.4 20.7-20.3 0-33.3-6.4-33.3-17.4 0-11 4.6-10.8 12-11.2-3.5-2.5-5.4-5.9-5.4-10.2 0-4.3 2.4-8.8 5.7-10.5v-.2c-6.1-3.7-9.5-9.8-9.5-17.6 0-13.5 10.5-21.9 27.4-21.9s12.7 1.4 17.2 4h.1c-1.9-2.1-3-4.5-3-7.1 0-5 4.7-8.1 12.1-8.1 7.4 0 4.7.3 6.2.6v9.8c-1-.4-2.4-.6-4.1-.6-4.1 0-6.1 1.7-6.1 5.1 0 3.4.6 3.9 1.4 6.2 2.4 3.2 3.6 7.4 3.6 12 0 13.6-10.5 21.9-27.4 21.9s-7.6-.5-10.8-1.4c-.7.9-1.5 2.6-1.5 4.7 0 3.5 2.5 5.6 7 5.6h19.9c13.2 0 20.8 5.7 20.8 15.6Zm-14 1.6c0-4.1-3.1-6.4-9.7-6.4H813c-7 0-11.5 2.1-11.5 6.9 0 4.8 7.5 8.7 19.3 8.7s18.6-3.7 18.6-9.2Zm-35.5-48.1c0 7.4 5.4 12 14.1 12s14.1-4.6 14.1-12-5.4-12-14.1-12-14.1 4.6-14.1 12ZM863.7 169.8v-37.4h14v35.4c0 9.7 6 15.2 16.1 15.2 10.1 0 20.3-8.4 20.3-23.3v-27.3h14V194h-14c.4-4.1.6-10.7.6-17.2h-.1c-2.6 11.7-11.2 18.2-24.9 18.2s-25.9-8.8-25.9-25.2ZM1000.3 165.9h-46.1c.8 11.8 7.4 18.2 17.8 18.2s15.1-4 15.7-11.2h12.6c-.5 13.7-11.7 22.1-28.5 22.1s-31.7-12-31.7-31.3 12.2-32.3 31.7-32.3 28.5 10.3 28.5 29.5v5Zm-12.6-9.3c0-9.2-5.7-14.3-15.8-14.3-10.1 0-15.7 5-17.3 15.2h33.2v-.9ZM1008.7 185.2l33.9-41.3v-.3h-32.9v-11.3h51.1v8.6l-34 41.5c0 .1 34 .1 34 .1v11.3h-52.1v-8.7Z" />
    </g>
    <g fill="#383838">
      <path d="M461.7 281.1h-2.9v-30.2h8.9c2.9 0 5.3.7 7 2 1.7 1.3 2.6 3.4 2.6 6.1 0 2.7-.6 3.9-1.9 5.3-1.3 1.4-3.1 2.3-5.5 2.5l8.3 14.3h-3.6l-7.9-14h-4.9v14Zm0-16.8h5.2c1.3 0 2.4-.1 3.3-.4.9-.3 1.6-.7 2.2-1.1.5-.5.9-1 1.2-1.7.2-.6.4-1.3.4-2.1s-.1-1.4-.4-2c-.2-.6-.6-1.2-1.2-1.7-.5-.5-1.3-.9-2.2-1.1-.9-.3-2-.4-3.3-.4h-5.2v10.5ZM495.3 278.3h15.5v2.8h-18.4v-30.2h17.9v2.8h-15V264h14v2.8h-14v11.5ZM526 250.9h2.9V264h15.8v-13.1h2.9v30.2h-2.9v-14.3h-15.8v14.3H526v-30.2ZM564.3 281.1h-3.4l12.6-30.2h2.9l12.6 30.2h-3.4l-3.2-7.9h-14.8l-3.2 7.9Zm4.3-10.7h12.6l-6.3-15.9-6.3 15.9ZM602.2 250.9h8.6c1.2 0 2.4.1 3.5.4 1.1.3 2.1.7 3 1.3.9.6 1.6 1.4 2.1 2.3.5 1 .8 2.2.8 3.6s-.4 3.1-1.3 4.2c-.9 1.2-2.1 2-3.8 2.4 2 .3 3.6 1 4.8 2.3 1.2 1.3 1.7 3.1 1.7 5.3 0 2.2-.1 1.2-.3 2.1-.2.9-.7 1.9-1.5 2.8-.7.9-1.8 1.7-3.2 2.4-1.4.7-3.2 1-5.6 1h-8.8v-30.2Zm3 13.2h5.9c.7 0 1.4 0 2.1-.3.7-.2 1.3-.5 1.9-.9.6-.4 1-1 1.4-1.6.4-.7.5-1.5.5-2.5s0-.7-.2-1.3c-.1-.6-.4-1.1-.8-1.7-.4-.6-1-1.1-1.9-1.5-.8-.4-1.9-.6-3.3-.6h-5.6v10.4Zm0 14.2h5.6c1.1 0 2.1-.1 3-.3.9-.2 1.7-.6 2.4-1 .7-.5 1.2-1.1 1.6-1.8.4-.7.6-1.6.6-2.6 0-2-.6-3.5-1.8-4.4-1.2-1-3-1.4-5.4-1.4h-6v11.6ZM640.3 281.1h-2.9v-30.2h2.9v30.2ZM660.5 278.3H674v2.8h-16.4v-30.2h2.9v27.4ZM690.3 281.1h-2.9v-30.2h2.9v30.2ZM716.8 281.1h-2.9v-27.4h-9.7v-2.8h22.3v2.8h-9.7v27.4ZM737 281.1h-3.4l12.6-30.2h2.9l12.6 30.2h-3.4l-3.2-7.9h-14.8l-3.2 7.9Zm4.3-10.7h12.6l-6.3-15.9-6.3 15.9ZM798.8 276.3c-.5.8-1.1 1.5-1.8 2.2-.7.7-1.5 1.3-2.5 1.8-.9.5-1.9.9-3 1.2-1.1.3-2.2.4-3.4.4-2.2 0-4.1-.4-6-1.2-1.8-.8-3.4-1.9-4.8-3.3-1.3-1.4-2.4-3.1-3.2-5-.8-1.9-1.1-4.1-1.1-6.4 0-2.3.4-4.4 1.1-6.4.8-1.9 1.8-3.6 3.2-5 1.3-1.4 2.9-2.5 4.8-3.3 1.8-.8 3.8-1.2 6-1.2s3.6.4 5.4 1.1c1.8.7 3.3 2 4.6 3.7l-2.6 2c-.3-.5-.7-1-1.2-1.5s-1.1-.9-1.8-1.3-1.4-.7-2.1-.9c-.7-.2-1.5-.3-2.3-.3-1.9 0-3.5.4-5 1.1-1.5.7-2.7 1.7-3.7 2.9s-1.8 2.6-2.3 4.2c-.5 1.6-.8 3.2-.8 5 0 1.8.3 3.4.8 5s1.3 3 2.3 4.2c1 1.2 2.3 2.1 3.7 2.9 1.5.7 3.1 1.1 5 1.1s1.5 0 2.3-.2c.7-.1 1.5-.4 2.2-.7.7-.3 1.4-.8 2-1.4.6-.6 1.2-1.3 1.8-2.2l2.4 1.8ZM816 281.1h-2.9v-30.2h2.9v30.2ZM861.4 266c0 2.3-.4 4.4-1.1 6.4-.8 1.9-1.8 3.6-3.2 5-1.3 1.4-2.9 2.5-4.8 3.3-1.9.8-3.8 1.2-6 1.2s-4.1-.4-6-1.2c-1.9-.8-3.4-1.9-4.8-3.3-1.3-1.4-2.4-3.1-3.2-5-.8-1.9-1.1-4.1-1.1-6.4 0-2.3.4-4.4 1.1-6.4.8-1.9 1.8-3.6 3.2-5 1.3-1.4 2.9-2.5 4.8-3.3 1.9-.8 3.8-1.2 6-1.2s4.1.4 6 1.2c1.9.8 3.4 1.9 4.8 3.3s2.4 3.1 3.2 5c.8 1.9 1.1 4.1 1.1 6.4Zm-3.1 0c0-1.7-.3-3.4-.8-5s-1.3-3-2.4-4.2c-1-1.2-2.3-2.1-3.7-2.9-1.5-.7-3.1-1.1-5-1.1s-3.5.4-5 1.1c-1.5.7-2.7 1.7-3.7 2.9s-1.8 2.6-2.3 4.2c-.5 1.6-.8 3.2-.8 5 0 1.8.3 3.4.8 5s1.3 3 2.3 4.2c1 1.2 2.3 2.1 3.7 2.9 1.5.7 3.1 1.1 5 1.1s3.5-.4 5-1.1c1.5-.7 2.7-1.7 3.7-2.9s1.8-2.6 2.4-4.2c.5-1.6.8-3.2.8-5Zm-12-16.4h-2.4l4.1-6.1h3.7l-5.4 6.1ZM897.6 276.5v-25.6h2.9v30.2h-3.7l-17.3-25.9v25.9h-2.9v-30.2h3.7l17.3 25.6ZM966.8 266c0 2.3-.4 4.4-1.1 6.4-.8 1.9-1.8 3.6-3.2 5-1.3 1.4-2.9 2.5-4.8 3.3-1.8.8-3.8 1.2-6 1.2s-4.1-.4-6-1.2c-1.8-.8-3.4-1.9-4.8-3.3-1.3-1.4-2.4-3.1-3.2-5-.8-1.9-1.1-4.1-1.1-6.4 0-2.3.4-4.4 1.1-6.4.8-1.9 1.8-3.6 3.2-5 1.3-1.4 2.9-2.5 4.8-3.3 1.8-.8 3.8-1.2 6-1.2s4.1.4 6 1.2c1.8.8 3.4 1.9 4.8 3.3s2.4 3.1 3.2 5c.8 1.9 1.1 4.1 1.1 6.4Zm-3.2 0c0-1.7-.3-3.4-.8-5s-1.3-3-2.4-4.2c-1-1.2-2.3-2.1-3.7-2.9-1.5-.7-3.1-1.1-5-1.1s-3.5.4-5 1.1c-1.5.7-2.7 1.7-3.7 2.9s-1.8 2.6-2.3 4.2c-.5 1.6-.8 3.2-.8 5 0 1.8.3 3.4.8 5s1.3 3 2.3 4.2c1 1.2 2.3 2.1 3.7 2.9 1.5.7 3.1 1.1 5 1.1s3.5-.4 5-1.1c1.5-.7 2.7-1.7 3.7-2.9s1.8-2.6 2.4-4.2c.5-1.6.8-3.2.8-5ZM985 281.1h-2.9v-30.2h8.9c2.9 0 5.3.7 7 2 1.7 1.3 2.6 3.4 2.6 6.1 0 2.7-.6 3.9-1.9 5.3-1.3 1.4-3.1 2.3-5.5 2.5l8.3 14.3h-3.6l-7.9-14h-4.9v14Zm0-16.8h5.2c1.3 0 2.4-.1 3.3-.4.9-.3 1.6-.7 2.2-1.1.5-.5.9-1 1.2-1.7.2-.6.4-1.3.4-2.1s-.1-1.4-.4-2c-.2-.6-.6-1.2-1.2-1.7-.5-.5-1.3-.9-2.2-1.1-.9-.3-2-.4-3.3-.4H985v10.5ZM1015.2 281.1h-3.4l12.6-30.2h2.9l12.6 30.2h-3.4l-3.2-7.9h-14.8l-3.2 7.9Zm4.3-10.7h12.6l-6.3-15.9-6.3 15.9ZM1056 278.3h13.5v2.8h-16.4v-30.2h2.9v27.4Z" />
    </g>
  </svg>