<?xml version="1.0" encoding="UTF-8"?>
<!-- Generated by Pixelmator Pro 3.6.14 -->
<svg width="1292" height="282" viewBox="0 0 1292 282" xmlns="http://www.w3.org/2000/svg">
    <g id="Group">
        <path id="Path" fill="#ffffff" stroke="none" d="M 455 59 L 468.5 59 C 468.5 69.5 473.5 76.700012 489.200012 76.700012 C 504.900024 76.700012 510.099976 70.5 510.099976 63.700012 C 510.099976 56.900024 508.200012 56.599976 504.400024 55.200012 C 500.299988 53.599976 491.400024 52.5 484.299988 51.5 C 476.099976 50.400024 467.400024 48.5 462.900024 45.599976 C 457.900024 42.5 454.799988 36.900024 454.799988 29.099976 C 454.799988 14.099976 467.599976 3.700012 489.099976 3.700012 C 510.599976 3.700012 522.299988 14.400024 522.299988 33.099976 L 508.799988 33.099976 C 508.799988 21 502.200012 15.299988 489.400024 15.299988 C 476.599976 15.299988 469.700012 20.400024 469.700012 27.900024 C 469.700012 35.400024 471.299988 35.299988 474.599976 36.700012 C 478.200012 38.400024 487.400024 39.900024 494.5 40.900024 C 503.099976 42.299988 511.099976 43.599976 516.200012 46.400024 C 521.799988 49.299988 525 55 525 62.599976 C 525 75.799988 517.299988 88.200012 489.400024 88.200012 C 461.5 88.200012 455.099976 73.900024 455.099976 58.900024 Z"/>
        <path id="path1" fill="#ffffff" stroke="none" d="M 535.400024 69.299988 C 535.400024 59.900024 542 52.599976 558.5 52.599976 L 581.299988 52.599976 L 581.299988 48.200012 C 581.299988 39 575.900024 34.900024 565.099976 34.900024 C 554.299988 34.900024 550.299988 38.5 550.299988 45.400024 C 550.299988 52.299988 550.299988 46.799988 550.400024 47.799988 L 537.599976 47.799988 C 537.5 46.900024 537.299988 45.299988 537.299988 44.200012 C 537.299988 31.900024 548 24.5 565.599976 24.5 C 583.200012 24.5 595.299988 33.299988 595.299988 49.599976 L 595.299988 87.099976 L 581.299988 87.099976 C 581.599976 84.099976 581.900024 78.5 581.900024 73.5 L 581.799988 73.5 C 579.799988 82.599976 572.5 88.099976 558.900024 88.099976 C 545.299988 88.099976 535.5 81.400024 535.5 69.400024 Z M 581.299988 62.200012 L 581.299988 61.099976 L 559.700012 61.099976 C 551.700012 61.099976 548.200012 63.799988 548.200012 68.700012 C 548.200012 73.599976 553.200012 77.599976 561.700012 77.599976 C 573.799988 77.599976 581.299988 71.700012 581.299988 62.299988 Z"/>
        <path id="path2" fill="#ffffff" stroke="none" d="M 608.599976 25.400024 L 622.599976 25.400024 L 622.099976 41.900024 L 622.200012 41.900024 C 625.599976 30.799988 633.5 24.5 647.900024 24.5 C 662.299988 24.5 673.099976 33.299988 673.099976 48.599976 L 673.099976 87.099976 L 659.099976 87.099976 L 659.099976 51.700012 C 659.099976 42 653.599976 36.5 642.5 36.5 C 631.400024 36.5 622.599976 43.900024 622.599976 57.299988 L 622.599976 87.099976 L 608.599976 87.099976 L 608.599976 25.5 Z"/>
        <path id="path3" fill="#ffffff" stroke="none" d="M 684.5 55.900024 C 684.5 37.299988 696.099976 24.5 714.400024 24.5 C 732.699951 24.5 733.199951 29.099976 735.699951 36.299988 L 735.800049 36.299988 L 735.800049 0.599976 L 749.800049 0.599976 L 749.800049 87 L 735.800049 87 C 736.099976 83.400024 736.199951 78 736.400024 72 L 736.099976 72 C 733.699951 81.700012 726 88 713.400024 88 C 695.599976 88 684.400024 75 684.400024 55.799988 Z M 735.900024 56.900024 L 735.900024 53.900024 C 735.900024 42.900024 728.300049 36 716.699951 36 C 705.099976 36 698.400024 44.200012 698.400024 55.900024 C 698.400024 67.599976 705.5 76.599976 716.5 76.599976 C 727.5 76.599976 735.900024 68.900024 735.900024 56.900024 Z"/>
        <path id="path4" fill="#ffffff" stroke="none" d="M 764.199951 25.400024 L 778.199951 25.400024 L 777.699951 43.099976 L 777.800049 43.099976 C 780.699951 32 787 24.400024 799.699951 24.400024 C 812.400024 24.400024 820.400024 33.099976 820.400024 48.5 C 820.400024 63.900024 820 57.400024 819.800049 60 L 807.099976 60 C 807.300049 57.599976 807.599976 54.5 807.599976 51.599976 C 807.599976 41.299988 803.599976 36.400024 795.400024 36.400024 C 787.199951 36.400024 778.199951 45.400024 778.199951 60.099976 L 778.199951 87 L 764.199951 87 L 764.199951 25.400024 Z"/>
        <path id="path5" fill="#ffffff" stroke="none" d="M 830.599976 69.299988 C 830.599976 59.900024 837.199951 52.599976 853.699951 52.599976 L 876.5 52.599976 L 876.5 48.200012 C 876.5 39 871.099976 34.900024 860.300049 34.900024 C 849.5 34.900024 845.5 38.5 845.5 45.400024 C 845.5 52.299988 845.5 46.799988 845.599976 47.799988 L 832.800049 47.799988 C 832.699951 46.900024 832.5 45.299988 832.5 44.200012 C 832.5 31.900024 843.199951 24.5 860.800049 24.5 C 878.400024 24.5 890.5 33.299988 890.5 49.599976 L 890.5 87.099976 L 876.5 87.099976 C 876.800049 84.099976 877.099976 78.5 877.099976 73.5 L 877 73.5 C 875 82.599976 867.699951 88.099976 854.099976 88.099976 C 840.5 88.099976 830.699951 81.400024 830.699951 69.400024 Z M 876.400024 62.200012 L 876.400024 61.099976 L 854.800049 61.099976 C 846.800049 61.099976 843.300049 63.799988 843.300049 68.700012 C 843.300049 73.599976 848.300049 77.599976 856.800049 77.599976 C 868.900024 77.599976 876.400024 71.700012 876.400024 62.299988 Z"/>
    </g>
    <g id="g1">
        <path id="path6" fill="#ffffff" stroke="none" d="M 102.600006 210.599976 C 59.100006 191 37.399994 142.700012 49.700012 98.099976 C 62 53.5 60.200012 86.599976 67.299988 89.900024 L 67.299988 89.900024 C 73.100006 92.5 76 99 74.299988 105.099976 C 65.399994 137.700012 81.299988 172.900024 113.100006 187.200012 C 139.799988 199.299988 163.299988 181.200012 198.700012 150.200012 C 235.200012 118.099976 276.599976 81.799988 331.599976 104.200012 C 354.599976 113.5 372.200012 131.5 381.599976 154.900024 C 389.5 174.599976 390.599976 196.5 385 216.900024 C 382.900024 224.5 374.5 228.400024 367.400024 225.200012 L 367.400024 225.200012 C 361.599976 222.599976 358.700012 216.099976 360.400024 210 C 364.5 195.099976 363.700012 179 357.900024 164.5 C 351.200012 147.599976 338.400024 134.700012 322.099976 128.099976 C 281.799988 111.700012 249.700012 139.900024 215.799988 169.599976 C 181.700012 199.5 146.5 230.5 102.799988 210.799988 Z"/>
        <path id="path7" fill="#ffffff" stroke="none" d="M 0.5 125.299988 C -0.399994 109.099976 1.5 92.900024 6.200012 77.099976 C 8 70.900024 14.700012 67.599976 20.700012 69.900024 L 21.100006 69.900024 C 26.5 72.099976 29.200012 78 27.600006 83.5 C 19.600006 110.5 21.399994 139.200012 32.799988 165.299988 C 44.299988 191.400024 64.200012 212.200012 89.5 224.599976 C 94.700012 227.099976 97.100006 233.099976 95 238.5 L 95 238.900024 C 92.5 244.799988 85.700012 247.599976 80 244.799988 C 49.799988 230.099976 26 205.400024 12.399994 174.299988 C 5.5 158.5 1.5 142 0.600006 125.299988 Z"/>
        <path id="path8" fill="#ffffff" stroke="none" d="M 42.299988 47 C 42.299988 54.069214 36.569244 59.799988 29.5 59.799988 C 22.430756 59.799988 16.700012 54.069214 16.700012 47 C 16.700012 39.930786 22.430756 34.200012 29.5 34.200012 C 36.569244 34.200012 42.299988 39.930786 42.299988 47 Z"/>
    </g>
    <g id="g2">
        <path id="path9" fill="#ffffff" stroke="none" d="M 932.300049 4.5 L 947.300049 4.5 L 947.300049 74 L 987.900024 74 L 987.900024 86.5 L 932.300049 86.5 L 932.300049 4.5 Z"/>
        <path id="path10" fill="#ffffff" stroke="none" d="M 998 4 L 1012.300049 4 L 1012.300049 17.700012 L 998 17.700012 L 998 4 Z M 998.099976 24.900024 L 1012.099976 24.900024 L 1012.099976 86.5 L 998.099976 86.5 L 998.099976 24.900024 Z"/>
        <path id="path11" fill="#ffffff" stroke="none" d="M 1027 0.099976 L 1041 0.099976 L 1041 86.5 L 1027 86.5 L 1027 0.099976 Z"/>
        <path id="path12" fill="#ffffff" stroke="none" d="M 1055.800049 4 L 1070.099976 4 L 1070.099976 17.700012 L 1055.800049 17.700012 L 1055.800049 4 Z M 1055.900024 24.900024 L 1069.900024 24.900024 L 1069.900024 86.5 L 1055.900024 86.5 L 1055.900024 24.900024 Z"/>
        <path id="path13" fill="#ffffff" stroke="none" d="M 1082.699951 68.799988 C 1082.699951 59.400024 1089.300049 52.099976 1105.800049 52.099976 L 1128.599976 52.099976 L 1128.599976 47.700012 C 1128.599976 38.5 1123.199951 34.400024 1112.400024 34.400024 C 1101.599976 34.400024 1097.599976 38 1097.599976 44.900024 C 1097.599976 51.799988 1097.599976 46.299988 1097.699951 47.299988 L 1084.900024 47.299988 C 1084.800049 46.400024 1084.599976 44.799988 1084.599976 43.700012 C 1084.599976 31.400024 1095.300049 24 1112.900024 24 C 1130.5 24 1142.599976 32.799988 1142.599976 49.099976 L 1142.599976 86.599976 L 1128.599976 86.599976 C 1128.900024 83.599976 1129.199951 78 1129.199951 73 L 1129.099976 73 C 1127.099976 82.099976 1119.800049 87.599976 1106.199951 87.599976 C 1092.599976 87.599976 1082.800049 80.900024 1082.800049 68.900024 Z M 1128.599976 61.700012 L 1128.599976 60.599976 L 1107 60.599976 C 1099 60.599976 1095.5 63.299988 1095.5 68.200012 C 1095.5 73.099976 1100.5 77.099976 1109 77.099976 C 1121.099976 77.099976 1128.599976 71.200012 1128.599976 61.799988 Z"/>
        <path id="path14" fill="#ffffff" stroke="none" d="M 1155.900024 24.900024 L 1169.900024 24.900024 L 1169.400024 41.400024 L 1169.5 41.400024 C 1172.900024 30.299988 1180.800049 24 1195.199951 24 C 1209.599976 24 1220.400024 32.799988 1220.400024 48.099976 L 1220.400024 86.599976 L 1206.400024 86.599976 L 1206.400024 51.200012 C 1206.400024 41.5 1200.900024 36 1189.800049 36 C 1178.699951 36 1169.900024 43.400024 1169.900024 56.799988 L 1169.900024 86.599976 L 1155.900024 86.599976 L 1155.900024 25 Z"/>
        <path id="path15" fill="#ffffff" stroke="none" d="M 1231.900024 68.799988 C 1231.900024 59.400024 1238.5 52.099976 1255 52.099976 L 1277.800049 52.099976 L 1277.800049 47.700012 C 1277.800049 38.5 1272.400024 34.400024 1261.599976 34.400024 C 1250.800049 34.400024 1246.800049 38 1246.800049 44.900024 C 1246.800049 51.799988 1246.800049 46.299988 1246.900024 47.299988 L 1234.099976 47.299988 C 1234 46.400024 1233.800049 44.799988 1233.800049 43.700012 C 1233.800049 31.400024 1244.5 24 1262.099976 24 C 1279.699951 24 1291.800049 32.799988 1291.800049 49.099976 L 1291.800049 86.599976 L 1277.800049 86.599976 C 1278.099976 83.599976 1278.400024 78 1278.400024 73 L 1278.300049 73 C 1276.300049 82.099976 1269 87.599976 1255.400024 87.599976 C 1241.800049 87.599976 1232 80.900024 1232 68.900024 Z M 1277.800049 61.700012 L 1277.800049 60.599976 L 1256.199951 60.599976 C 1248.199951 60.599976 1244.699951 63.299988 1244.699951 68.200012 C 1244.699951 73.099976 1249.699951 77.099976 1258.199951 77.099976 C 1270.300049 77.099976 1277.800049 71.200012 1277.800049 61.799988 Z"/>
    </g>
    <g id="g3">
        <path id="path16" fill="#ffffff" stroke="none" d="M 459.099976 112 L 495.099976 112 C 516.200012 112 527 121.099976 527 135.799988 C 527 150.5 522.400024 153.599976 512.799988 155.400024 L 512.799988 155.599976 C 522.799988 157.099976 526.5 164.099976 526.5 173.900024 L 526.5 194 L 511.400024 194 L 511.400024 174.200012 C 511.400024 166 508 161.5 497.099976 161.5 L 474 161.5 L 474 194 L 459 194 L 459 112 Z M 495.400024 151.599976 C 507.5 151.599976 512.700012 146.400024 512.700012 137.599976 C 512.700012 128.799988 507 124.400024 495 124.400024 L 474.099976 124.400024 L 474.099976 151.599976 L 495.400024 151.599976 Z"/>
        <path id="path17" fill="#ffffff" stroke="none" d="M 538.400024 163.299988 C 538.400024 143.599976 551 131.400024 570.599976 131.400024 C 590.200012 131.400024 602.900024 143.599976 602.900024 163.299988 C 602.900024 183 590.299988 195 570.599976 195 C 550.900024 195 538.400024 182.900024 538.400024 163.299988 Z M 588.900024 163.299988 C 588.900024 150.700012 581.900024 142.900024 570.599976 142.900024 C 559.299988 142.900024 552.400024 150.799988 552.400024 163.299988 C 552.400024 175.799988 559.299988 183.5 570.599976 183.5 C 581.900024 183.5 588.900024 175.799988 588.900024 163.299988 Z"/>
        <path id="path18" fill="#ffffff" stroke="none" d="M 612.900024 162.799988 C 612.900024 144.200012 624.5 131.400024 642.799988 131.400024 C 661.099976 131.400024 661.599976 136 664.099976 143.200012 L 664.200012 143.200012 L 664.200012 107.5 L 678.200012 107.5 L 678.200012 193.900024 L 664.200012 193.900024 C 664.5 190.299988 664.599976 184.900024 664.799988 178.900024 L 664.5 178.900024 C 662.099976 188.599976 654.400024 194.900024 641.799988 194.900024 C 624 194.900024 612.799988 181.900024 612.799988 162.700012 Z M 664.299988 163.799988 L 664.299988 160.799988 C 664.299988 149.799988 656.700012 142.900024 645.099976 142.900024 C 633.5 142.900024 626.799988 151.099976 626.799988 162.799988 C 626.799988 174.5 633.900024 183.5 644.900024 183.5 C 655.900024 183.5 664.299988 175.799988 664.299988 163.799988 Z"/>
        <path id="path19" fill="#ffffff" stroke="none" d="M 692.599976 132.400024 L 706.599976 132.400024 L 706.099976 150.099976 L 706.200012 150.099976 C 709.099976 139 715.400024 131.400024 728.099976 131.400024 C 740.800049 131.400024 748.800049 140.099976 748.800049 155.5 C 748.800049 170.900024 748.400024 164.400024 748.199951 167 L 735.5 167 C 735.699951 164.599976 736 161.5 736 158.599976 C 736 148.299988 732 143.400024 723.800049 143.400024 C 715.599976 143.400024 706.599976 152.400024 706.599976 167.099976 L 706.599976 194 L 692.599976 194 L 692.599976 132.400024 Z"/>
        <path id="path20" fill="#ffffff" stroke="none" d="M 761.300049 132.400024 L 775.300049 132.400024 L 775.300049 194 L 761.300049 194 L 761.300049 132.400024 Z M 771.099976 108.599976 L 785.699951 108.599976 L 772.400024 126 L 761.400024 126 L 771.099976 108.599976 Z"/>
        <path id="path21" fill="#ffffff" stroke="none" d="M 853.400024 199.799988 C 853.400024 212.799988 841.300049 220.5 821 220.5 C 800.699951 220.5 787.699951 214.099976 787.699951 203.099976 C 787.699951 192.099976 792.300049 192.299988 799.699951 191.900024 L 799.699951 191.900024 C 796.199951 189.400024 794.300049 186 794.300049 181.700012 C 794.300049 177.400024 796.699951 172.900024 800 171.200012 L 800 171 C 793.900024 167.299988 790.5 161.200012 790.5 153.400024 C 790.5 139.900024 801 131.5 817.900024 131.5 C 834.800049 131.5 830.599976 132.900024 835.099976 135.5 L 835.199951 135.5 C 833.300049 133.400024 832.199951 131 832.199951 128.400024 C 832.199951 123.400024 836.900024 120.299988 844.300049 120.299988 C 851.699951 120.299988 849 120.599976 850.5 120.900024 L 850.5 130.700012 C 849.5 130.299988 848.099976 130.099976 846.400024 130.099976 C 842.300049 130.099976 840.300049 131.799988 840.300049 135.200012 C 840.300049 138.599976 840.900024 139.099976 841.699951 141.400024 C 844.099976 144.599976 845.300049 148.799988 845.300049 153.400024 C 845.300049 167 834.800049 175.299988 817.900024 175.299988 C 801 175.299988 810.300049 174.799988 807.099976 173.900024 C 806.400024 174.799988 805.599976 176.5 805.599976 178.599976 C 805.599976 182.099976 808.099976 184.200012 812.599976 184.200012 L 832.5 184.200012 C 845.699951 184.200012 853.300049 189.900024 853.300049 199.799988 Z M 839.400024 201.400024 C 839.400024 197.299988 836.300049 195 829.699951 195 L 813 195 C 806 195 801.5 197.099976 801.5 201.900024 C 801.5 206.700012 809 210.599976 820.800049 210.599976 C 832.599976 210.599976 839.400024 206.900024 839.400024 201.400024 Z M 803.900024 153.299988 C 803.900024 160.700012 809.300049 165.299988 818 165.299988 C 826.699951 165.299988 832.099976 160.700012 832.099976 153.299988 C 832.099976 145.900024 826.699951 141.299988 818 141.299988 C 809.300049 141.299988 803.900024 145.900024 803.900024 153.299988 Z"/>
        <path id="path22" fill="#ffffff" stroke="none" d="M 863.699951 169.799988 L 863.699951 132.400024 L 877.699951 132.400024 L 877.699951 167.799988 C 877.699951 177.5 883.699951 183 893.800049 183 C 903.900024 183 914.099976 174.599976 914.099976 159.700012 L 914.099976 132.400024 L 928.099976 132.400024 L 928.099976 194 L 914.099976 194 C 914.5 189.900024 914.699951 183.299988 914.699951 176.799988 L 914.599976 176.799988 C 912 188.5 903.400024 195 889.699951 195 C 876 195 863.800049 186.200012 863.800049 169.799988 Z"/>
        <path id="path23" fill="#ffffff" stroke="none" d="M 1000.300049 165.900024 L 954.199951 165.900024 C 955 177.700012 961.599976 184.099976 972 184.099976 C 982.400024 184.099976 987.099976 180.099976 987.699951 172.900024 L 1000.300049 172.900024 C 999.800049 186.599976 988.599976 195 971.800049 195 C 955 195 940.099976 183 940.099976 163.700012 C 940.099976 144.400024 952.300049 131.400024 971.800049 131.400024 C 991.300049 131.400024 1000.300049 141.700012 1000.300049 160.900024 L 1000.300049 165.900024 Z M 987.699951 156.599976 C 987.699951 147.400024 982 142.299988 971.900024 142.299988 C 961.800049 142.299988 956.199951 147.299988 954.599976 157.5 L 987.800049 157.5 L 987.800049 156.599976 Z"/>
        <path id="path24" fill="#ffffff" stroke="none" d="M 1008.699951 185.200012 L 1042.599976 143.900024 L 1042.599976 143.599976 L 1009.699951 143.599976 L 1009.699951 132.299988 L 1060.800049 132.299988 L 1060.800049 140.900024 L 1026.800049 182.400024 L 1026.800049 182.400024 C 1026.800049 182.5 1060.800049 182.5 1060.800049 182.5 L 1060.800049 193.799988 L 1008.699951 193.799988 L 1008.699951 185.099976 Z"/>
    </g>
    <g id="g4">
        <path id="path25" fill="#ffffff" stroke="none" d="M 461.700012 281.099976 L 458.799988 281.099976 L 458.799988 250.900024 L 467.700012 250.900024 C 470.599976 250.900024 473 251.599976 474.700012 252.900024 C 476.400024 254.200012 477.299988 256.299988 477.299988 259 C 477.299988 261.700012 476.700012 262.900024 475.400024 264.299988 C 474.099976 265.700012 472.299988 266.599976 469.900024 266.799988 L 478.200012 281.099976 L 474.599976 281.099976 L 466.700012 267.099976 L 461.799988 267.099976 L 461.799988 281.099976 Z M 461.700012 264.299988 L 466.900024 264.299988 C 468.200012 264.299988 469.299988 264.200012 470.200012 263.900024 C 471.099976 263.599976 471.799988 263.200012 472.400024 262.799988 C 472.900024 262.299988 473.299988 261.799988 473.599976 261.099976 C 473.799988 260.5 474 259.799988 474 259 C 474 258.200012 473.900024 257.599976 473.599976 257 C 473.400024 256.400024 473 255.799988 472.400024 255.299988 C 471.900024 254.799988 471.099976 254.400024 470.200012 254.200012 C 469.299988 253.900024 468.200012 253.799988 466.900024 253.799988 L 461.700012 253.799988 L 461.700012 264.299988 Z"/>
        <path id="path26" fill="#ffffff" stroke="none" d="M 495.299988 278.299988 L 510.799988 278.299988 L 510.799988 281.099976 L 492.400024 281.099976 L 492.400024 250.900024 L 510.299988 250.900024 L 510.299988 253.700012 L 495.299988 253.700012 L 495.299988 264 L 509.299988 264 L 509.299988 266.799988 L 495.299988 266.799988 L 495.299988 278.299988 Z"/>
        <path id="path27" fill="#ffffff" stroke="none" d="M 526 250.900024 L 528.900024 250.900024 L 528.900024 264 L 544.700012 264 L 544.700012 250.900024 L 547.599976 250.900024 L 547.599976 281.099976 L 544.700012 281.099976 L 544.700012 266.799988 L 528.900024 266.799988 L 528.900024 281.099976 L 526 281.099976 L 526 250.900024 Z"/>
        <path id="path28" fill="#ffffff" stroke="none" d="M 564.299988 281.099976 L 560.900024 281.099976 L 573.5 250.900024 L 576.400024 250.900024 L 589 281.099976 L 585.599976 281.099976 L 582.400024 273.200012 L 567.599976 273.200012 L 564.400024 281.099976 Z M 568.599976 270.400024 L 581.200012 270.400024 L 574.900024 254.5 L 568.599976 270.400024 Z"/>
        <path id="path29" fill="#ffffff" stroke="none" d="M 602.200012 250.900024 L 610.799988 250.900024 C 612 250.900024 613.200012 251 614.299988 251.299988 C 615.400024 251.599976 616.400024 252 617.299988 252.599976 C 618.200012 253.200012 618.900024 254 619.400024 254.900024 C 619.900024 255.900024 620.200012 257.099976 620.200012 258.5 C 620.200012 259.900024 619.799988 261.599976 618.900024 262.700012 C 618 263.900024 616.799988 264.700012 615.099976 265.099976 L 615.099976 265.099976 C 617.099976 265.400024 618.700012 266.099976 619.900024 267.400024 C 621.099976 268.700012 621.599976 270.5 621.599976 272.700012 C 621.599976 274.900024 621.5 273.900024 621.299988 274.799988 C 621.099976 275.700012 620.599976 276.700012 619.799988 277.599976 C 619.099976 278.5 618 279.299988 616.599976 280 C 615.200012 280.700012 613.400024 281 611 281 L 602.200012 281 L 602.200012 250.799988 Z M 605.200012 264.099976 L 611.099976 264.099976 C 611.799988 264.099976 612.5 264.099976 613.200012 263.799988 C 613.900024 263.599976 614.5 263.299988 615.099976 262.900024 C 615.700012 262.5 616.099976 261.900024 616.5 261.299988 C 616.900024 260.599976 617 259.799988 617 258.799988 C 617 257.799988 617 258.099976 616.799988 257.5 C 616.700012 256.900024 616.400024 256.400024 616 255.799988 C 615.599976 255.200012 615 254.700012 614.099976 254.299988 C 613.299988 253.900024 612.200012 253.700012 610.799988 253.700012 L 605.200012 253.700012 L 605.200012 264.099976 Z M 605.200012 278.299988 L 610.799988 278.299988 C 611.900024 278.299988 612.900024 278.200012 613.799988 278 C 614.700012 277.799988 615.5 277.400024 616.200012 277 C 616.900024 276.5 617.400024 275.900024 617.799988 275.200012 C 618.200012 274.5 618.400024 273.599976 618.400024 272.599976 C 618.400024 270.599976 617.799988 269.099976 616.599976 268.200012 C 615.400024 267.200012 613.599976 266.799988 611.200012 266.799988 L 605.200012 266.799988 L 605.200012 278.400024 Z"/>
        <path id="path30" fill="#ffffff" stroke="none" d="M 640.299988 281.099976 L 637.400024 281.099976 L 637.400024 250.900024 L 640.299988 250.900024 L 640.299988 281.099976 Z"/>
        <path id="path31" fill="#ffffff" stroke="none" d="M 660.5 278.299988 L 674 278.299988 L 674 281.099976 L 657.599976 281.099976 L 657.599976 250.900024 L 660.5 250.900024 L 660.5 278.299988 Z"/>
        <path id="path32" fill="#ffffff" stroke="none" d="M 690.299988 281.099976 L 687.400024 281.099976 L 687.400024 250.900024 L 690.299988 250.900024 L 690.299988 281.099976 Z"/>
        <path id="path33" fill="#ffffff" stroke="none" d="M 716.800049 281.099976 L 713.900024 281.099976 L 713.900024 253.700012 L 704.200012 253.700012 L 704.200012 250.900024 L 726.5 250.900024 L 726.5 253.700012 L 716.800049 253.700012 L 716.800049 281.099976 Z"/>
        <path id="path34" fill="#ffffff" stroke="none" d="M 737 281.099976 L 733.599976 281.099976 L 746.199951 250.900024 L 749.099976 250.900024 L 761.699951 281.099976 L 758.300049 281.099976 L 755.099976 273.200012 L 740.300049 273.200012 L 737.099976 281.099976 Z M 741.300049 270.400024 L 753.900024 270.400024 L 747.599976 254.5 L 741.300049 270.400024 Z"/>
        <path id="path35" fill="#ffffff" stroke="none" d="M 798.800049 276.299988 C 798.300049 277.099976 797.699951 277.799988 797 278.5 C 796.300049 279.200012 795.5 279.799988 794.5 280.299988 C 793.599976 280.799988 792.599976 281.200012 791.5 281.5 C 790.400024 281.799988 789.300049 281.900024 788.099976 281.900024 C 785.900024 281.900024 784 281.5 782.099976 280.700012 C 780.300049 279.900024 778.699951 278.799988 777.300049 277.400024 C 776 276 774.900024 274.299988 774.099976 272.400024 C 773.300049 270.5 773 268.299988 773 266 C 773 263.700012 773.400024 261.599976 774.099976 259.599976 C 774.900024 257.700012 775.900024 256 777.300049 254.599976 C 778.599976 253.200012 780.199951 252.099976 782.099976 251.299988 C 783.900024 250.5 785.900024 250.099976 788.099976 250.099976 C 790.300049 250.099976 791.699951 250.5 793.5 251.200012 C 795.300049 251.900024 796.800049 253.200012 798.099976 254.900024 L 795.5 256.900024 C 795.199951 256.400024 794.800049 255.900024 794.300049 255.400024 C 793.800049 254.900024 793.199951 254.5 792.5 254.099976 C 791.800049 253.700012 791.099976 253.400024 790.400024 253.200012 C 789.699951 253 788.900024 252.900024 788.099976 252.900024 C 786.199951 252.900024 784.599976 253.299988 783.099976 254 C 781.599976 254.700012 780.400024 255.700012 779.400024 256.900024 C 778.400024 258.099976 777.599976 259.5 777.099976 261.099976 C 776.599976 262.700012 776.300049 264.299988 776.300049 266.099976 C 776.300049 267.900024 776.599976 269.5 777.099976 271.099976 C 777.599976 272.700012 778.400024 274.099976 779.400024 275.299988 C 780.400024 276.5 781.699951 277.400024 783.099976 278.200012 C 784.599976 278.900024 786.199951 279.299988 788.099976 279.299988 C 790 279.299988 789.599976 279.299988 790.400024 279.099976 C 791.099976 279 791.900024 278.700012 792.599976 278.400024 C 793.300049 278.099976 794 277.599976 794.599976 277 C 795.199951 276.400024 795.800049 275.700012 796.400024 274.799988 L 798.800049 276.599976 Z"/>
        <path id="path36" fill="#ffffff" stroke="none" d="M 816 281.099976 L 813.099976 281.099976 L 813.099976 250.900024 L 816 250.900024 L 816 281.099976 Z"/>
        <path id="path37" fill="#ffffff" stroke="none" d="M 861.400024 266 C 861.400024 268.299988 861 270.400024 860.300049 272.400024 C 859.5 274.299988 858.5 276 857.099976 277.400024 C 855.800049 278.799988 854.199951 279.900024 852.300049 280.700012 C 850.400024 281.5 848.5 281.900024 846.300049 281.900024 C 844.099976 281.900024 842.199951 281.5 840.300049 280.700012 C 838.400024 279.900024 836.900024 278.799988 835.5 277.400024 C 834.199951 276 833.099976 274.299988 832.300049 272.400024 C 831.5 270.5 831.199951 268.299988 831.199951 266 C 831.199951 263.700012 831.599976 261.599976 832.300049 259.599976 C 833.099976 257.700012 834.099976 256 835.5 254.599976 C 836.800049 253.200012 838.400024 252.099976 840.300049 251.299988 C 842.199951 250.5 844.099976 250.099976 846.300049 250.099976 C 848.5 250.099976 850.400024 250.5 852.300049 251.299988 C 854.199951 252.099976 855.699951 253.200012 857.099976 254.599976 C 858.5 256 859.5 257.700012 860.300049 259.599976 C 861.099976 261.5 861.400024 263.700012 861.400024 266 Z M 858.300049 266 C 858.300049 264.299988 858 262.599976 857.5 261 C 857 259.400024 856.199951 258 855.099976 256.799988 C 854.099976 255.599976 852.800049 254.700012 851.400024 253.900024 C 849.900024 253.200012 848.300049 252.799988 846.400024 252.799988 C 844.5 252.799988 842.900024 253.200012 841.400024 253.900024 C 839.900024 254.599976 838.699951 255.599976 837.699951 256.799988 C 836.699951 258 835.900024 259.400024 835.400024 261 C 834.900024 262.599976 834.599976 264.200012 834.599976 266 C 834.599976 267.799988 834.900024 269.400024 835.400024 271 C 835.900024 272.599976 836.699951 274 837.699951 275.200012 C 838.699951 276.400024 840 277.299988 841.400024 278.099976 C 842.900024 278.799988 844.5 279.200012 846.400024 279.200012 C 848.300049 279.200012 849.900024 278.799988 851.400024 278.099976 C 852.900024 277.400024 854.099976 276.400024 855.099976 275.200012 C 856.099976 274 856.900024 272.599976 857.5 271 C 858 269.400024 858.300049 267.799988 858.300049 266 Z M 846.300049 249.599976 L 843.900024 249.599976 L 848 243.5 L 851.699951 243.5 L 846.300049 249.599976 Z"/>
        <path id="path38" fill="#ffffff" stroke="none" d="M 897.599976 276.5 L 897.599976 276.5 L 897.599976 250.900024 L 900.5 250.900024 L 900.5 281.099976 L 896.800049 281.099976 L 879.5 255.200012 L 879.5 255.200012 L 879.5 281.099976 L 876.599976 281.099976 L 876.599976 250.900024 L 880.300049 250.900024 L 897.599976 276.5 Z"/>
        <path id="path39" fill="#ffffff" stroke="none" d="M 966.800049 266 C 966.800049 268.299988 966.400024 270.400024 965.699951 272.400024 C 964.900024 274.299988 963.900024 276 962.5 277.400024 C 961.199951 278.799988 959.599976 279.900024 957.699951 280.700012 C 955.900024 281.5 953.900024 281.900024 951.699951 281.900024 C 949.5 281.900024 947.599976 281.5 945.699951 280.700012 C 943.900024 279.900024 942.300049 278.799988 940.900024 277.400024 C 939.599976 276 938.5 274.299988 937.699951 272.400024 C 936.900024 270.5 936.599976 268.299988 936.599976 266 C 936.599976 263.700012 937 261.599976 937.699951 259.599976 C 938.5 257.700012 939.5 256 940.900024 254.599976 C 942.199951 253.200012 943.800049 252.099976 945.699951 251.299988 C 947.5 250.5 949.5 250.099976 951.699951 250.099976 C 953.900024 250.099976 955.800049 250.5 957.699951 251.299988 C 959.5 252.099976 961.099976 253.200012 962.5 254.599976 C 963.900024 256 964.900024 257.700012 965.699951 259.599976 C 966.5 261.5 966.800049 263.700012 966.800049 266 Z M 963.599976 266 C 963.599976 264.299988 963.300049 262.599976 962.800049 261 C 962.300049 259.400024 961.5 258 960.400024 256.799988 C 959.400024 255.599976 958.099976 254.700012 956.699951 253.900024 C 955.199951 253.200012 953.599976 252.799988 951.699951 252.799988 C 949.800049 252.799988 948.199951 253.200012 946.699951 253.900024 C 945.199951 254.599976 944 255.599976 943 256.799988 C 942 258 941.199951 259.400024 940.699951 261 C 940.199951 262.599976 939.900024 264.200012 939.900024 266 C 939.900024 267.799988 940.199951 269.400024 940.699951 271 C 941.199951 272.599976 942 274 943 275.200012 C 944 276.400024 945.300049 277.299988 946.699951 278.099976 C 948.199951 278.799988 949.800049 279.200012 951.699951 279.200012 C 953.599976 279.200012 955.199951 278.799988 956.699951 278.099976 C 958.199951 277.400024 959.400024 276.400024 960.400024 275.200012 C 961.400024 274 962.199951 272.599976 962.800049 271 C 963.300049 269.400024 963.599976 267.799988 963.599976 266 Z"/>
        <path id="path40" fill="#ffffff" stroke="none" d="M 985 281.099976 L 982.099976 281.099976 L 982.099976 250.900024 L 991 250.900024 C 993.900024 250.900024 996.300049 251.599976 998 252.900024 C 999.699951 254.200012 1000.599976 256.299988 1000.599976 259 C 1000.599976 261.700012 1000 262.900024 998.699951 264.299988 C 997.400024 265.700012 995.599976 266.599976 993.199951 266.799988 L 1001.5 281.099976 L 997.900024 281.099976 L 990 267.099976 L 985.099976 267.099976 L 985.099976 281.099976 Z M 985 264.299988 L 990.199951 264.299988 C 991.5 264.299988 992.599976 264.200012 993.5 263.900024 C 994.400024 263.599976 995.099976 263.200012 995.699951 262.799988 C 996.199951 262.299988 996.599976 261.799988 996.900024 261.099976 C 997.099976 260.5 997.300049 259.799988 997.300049 259 C 997.300049 258.200012 997.199951 257.599976 996.900024 257 C 996.699951 256.400024 996.300049 255.799988 995.699951 255.299988 C 995.199951 254.799988 994.400024 254.400024 993.5 254.200012 C 992.599976 253.900024 991.5 253.799988 990.199951 253.799988 L 985 253.799988 L 985 264.299988 Z"/>
        <path id="path41" fill="#ffffff" stroke="none" d="M 1015.199951 281.099976 L 1011.800049 281.099976 L 1024.400024 250.900024 L 1027.300049 250.900024 L 1039.900024 281.099976 L 1036.5 281.099976 L 1033.300049 273.200012 L 1018.5 273.200012 L 1015.300049 281.099976 Z M 1019.5 270.400024 L 1032.099976 270.400024 L 1025.800049 254.5 L 1019.5 270.400024 Z"/>
        <path id="path42" fill="#ffffff" stroke="none" d="M 1056 278.299988 L 1069.5 278.299988 L 1069.5 281.099976 L 1053.099976 281.099976 L 1053.099976 250.900024 L 1056 250.900024 L 1056 278.299988 Z"/>
    </g>
</svg>
