<?xml version="1.0" encoding="UTF-8"?>
<svg xmlns="http://www.w3.org/2000/svg" version="1.1" viewBox="0 0 1920 1080">
  <!-- Generator: Adobe Illustrator 29.2.1, SVG Export Plug-In . SVG Version: 2.1.0 Build 116)  -->
  <defs>
    <style>
      .st0 {
        fill: #fff;
      }

      .st1 {
        fill: #00839d;
      }
    </style>
  </defs>
  <g id="Capa_2">
    <rect class="st1" width="1920" height="1080"/>
  </g>
  <g id="Capa_1">
    <g>
      <g>
        <path class="st0" d="M769,458h13.5c0,10.5,5,17.7,20.7,17.7s20.9-6.2,20.9-13-1.9-7.1-5.7-8.5c-4.1-1.6-13-2.7-20.1-3.7-8.2-1.1-16.9-3-21.4-5.9-5-3.1-8.1-8.7-8.1-16.5,0-15,12.8-25.4,34.3-25.4s33.2,10.7,33.2,29.4h-13.5c0-12.1-6.6-17.8-19.4-17.8s-19.7,5.1-19.7,12.6,1.6,7.4,4.9,8.8c3.6,1.7,12.8,3.2,19.9,4.2,8.6,1.4,16.6,2.7,21.7,5.5,5.6,2.9,8.8,8.6,8.8,16.2,0,13.2-7.7,25.6-35.6,25.6s-34.3-14.3-34.3-29.3Z"/>
        <path class="st0" d="M849.4,468.3c0-9.4,6.6-16.7,23.1-16.7h22.8v-4.4c0-9.2-5.4-13.3-16.2-13.3s-14.8,3.6-14.8,10.5,0,1.4.1,2.4h-12.8c-.1-.9-.3-2.5-.3-3.6,0-12.3,10.7-19.7,28.3-19.7s29.7,8.8,29.7,25.1v37.5h-14c.3-3,.6-8.6.6-13.6h-.1c-2,9.1-9.3,14.6-22.9,14.6s-23.4-6.7-23.4-18.7ZM895.3,461.2v-1.1h-21.6c-8,0-11.5,2.7-11.5,7.6s5,8.9,13.5,8.9c12.1,0,19.6-5.9,19.6-15.3Z"/>
        <path class="st0" d="M922.6,424.4h14l-.5,16.5h.1c3.4-11.1,11.3-17.4,25.7-17.4s25.2,8.8,25.2,24.1v38.5h-14v-35.4c0-9.7-5.5-15.2-16.6-15.2s-19.9,7.4-19.9,20.8v29.8h-14v-61.6Z"/>
        <path class="st0" d="M998.5,454.9c0-18.6,11.6-31.4,29.9-31.4s18.8,4.6,21.3,11.8h.1v-35.7h14v86.4h-14c.3-3.6.4-9,.6-15h-.3c-2.4,9.7-10.1,16-22.7,16-17.8,0-29-13-29-32.2ZM1049.9,455.9v-3c0-11-7.6-17.9-19.2-17.9s-18.3,8.2-18.3,19.9,7.1,20.7,18.1,20.7,19.4-7.7,19.4-19.7Z"/>
        <path class="st0" d="M1078.2,424.4h14l-.5,17.7h.1c2.9-11.1,9.2-18.7,21.9-18.7s20.7,8.7,20.7,24.1-.4,8.9-.6,11.5h-12.7c.2-2.4.5-5.5.5-8.4,0-10.3-4-15.2-12.2-15.2s-17.2,9-17.2,23.7v26.9h-14v-61.6Z"/>
        <path class="st0" d="M1144.6,468.3c0-9.4,6.6-16.7,23.1-16.7h22.8v-4.4c0-9.2-5.4-13.3-16.2-13.3s-14.8,3.6-14.8,10.5,0,1.4.1,2.4h-12.8c-.1-.9-.3-2.5-.3-3.6,0-12.3,10.7-19.7,28.3-19.7s29.7,8.8,29.7,25.1v37.5h-14c.3-3,.6-8.6.6-13.6h-.1c-2,9.1-9.3,14.6-22.9,14.6s-23.4-6.7-23.4-18.7ZM1190.4,461.2v-1.1h-21.6c-8,0-11.5,2.7-11.5,7.6s5,8.9,13.5,8.9c12.1,0,19.6-5.9,19.6-15.3Z"/>
      </g>
      <g>
        <path class="st0" d="M416.6,609.6c-43.5-19.6-65.2-67.9-52.9-112.5s10.5-11.5,17.6-8.2h0c5.8,2.6,8.7,9.1,7,15.2-8.9,32.6,7,67.8,38.8,82.1,26.7,12.1,50.2-6,85.6-37,36.5-32.1,77.9-68.4,132.9-46,23,9.3,40.6,27.3,50,50.7,7.9,19.7,9,41.6,3.4,62-2.1,7.6-10.5,11.5-17.6,8.3h0c-5.8-2.6-8.7-9.1-7-15.2,4.1-14.9,3.3-31-2.5-45.5-6.7-16.9-19.5-29.8-35.8-36.4-40.3-16.4-72.4,11.8-106.3,41.5-34.1,29.9-69.3,60.9-113,41.2Z"/>
        <path class="st0" d="M314.5,524.3c-.9-16.2,1-32.4,5.7-48.2,1.8-6.2,8.5-9.5,14.5-7.2h.4c5.4,2.2,8.1,8.1,6.5,13.6-8,27-6.2,55.7,5.2,81.8,11.5,26.1,31.4,46.9,56.7,59.3,5.2,2.5,7.6,8.5,5.5,13.9v.4c-2.5,5.9-9.3,8.7-15,5.9-30.2-14.7-54-39.4-67.6-70.5-6.9-15.8-10.9-32.3-11.8-49Z"/>
        <circle class="st0" cx="343.5" cy="446" r="12.8"/>
      </g>
      <g>
        <path class="st0" d="M1246.3,403.5h15v69.5h40.6v12.5h-55.6v-82Z"/>
        <path class="st0" d="M1312,403h14.3v13.7h-14.3v-13.7ZM1312.1,423.9h14v61.6h-14v-61.6Z"/>
        <path class="st0" d="M1341,399.1h14v86.4h-14v-86.4Z"/>
        <path class="st0" d="M1369.8,403h14.3v13.7h-14.3v-13.7ZM1369.9,423.9h14v61.6h-14v-61.6Z"/>
        <path class="st0" d="M1396.7,467.8c0-9.4,6.6-16.7,23.1-16.7h22.8v-4.4c0-9.2-5.4-13.3-16.2-13.3s-14.8,3.6-14.8,10.5,0,1.4.1,2.4h-12.8c-.1-.9-.3-2.5-.3-3.6,0-12.3,10.7-19.7,28.3-19.7s29.7,8.8,29.7,25.1v37.5h-14c.3-3,.6-8.6.6-13.6h-.1c-2,9.1-9.3,14.6-22.9,14.6s-23.4-6.7-23.4-18.7ZM1442.6,460.7v-1.1h-21.6c-8,0-11.5,2.7-11.5,7.6s5,8.9,13.5,8.9c12.1,0,19.6-5.9,19.6-15.3Z"/>
        <path class="st0" d="M1469.9,423.9h14l-.5,16.5h.1c3.4-11.1,11.3-17.4,25.7-17.4s25.2,8.8,25.2,24.1v38.5h-14v-35.4c0-9.7-5.5-15.2-16.6-15.2s-19.9,7.4-19.9,20.8v29.8h-14v-61.6Z"/>
        <path class="st0" d="M1545.9,467.8c0-9.4,6.6-16.7,23.1-16.7h22.8v-4.4c0-9.2-5.4-13.3-16.2-13.3s-14.8,3.6-14.8,10.5,0,1.4.1,2.4h-12.8c-.1-.9-.3-2.5-.3-3.6,0-12.3,10.7-19.7,28.3-19.7s29.7,8.8,29.7,25.1v37.5h-14c.3-3,.6-8.6.6-13.6h-.1c-2,9.1-9.3,14.6-22.9,14.6s-23.4-6.7-23.4-18.7ZM1591.8,460.7v-1.1h-21.6c-8,0-11.5,2.7-11.5,7.6s5,8.9,13.5,8.9c12.1,0,19.6-5.9,19.6-15.3Z"/>
      </g>
      <g>
        <path class="st0" d="M773.1,511h36c21.1,0,31.9,9.1,31.9,23.8s-4.6,17.8-14.2,19.6v.2c10,1.5,13.7,8.5,13.7,18.3v20.1h-15.1v-19.8c0-8.2-3.4-12.7-14.3-12.7h-23.1v32.5h-15v-82ZM809.4,550.6c12.1,0,17.3-5.2,17.3-14s-5.7-13.2-17.7-13.2h-20.9v27.2h21.3Z"/>
        <path class="st0" d="M852.4,562.3c0-19.7,12.6-31.9,32.2-31.9s32.3,12.2,32.3,31.9-12.6,31.7-32.3,31.7-32.2-12.1-32.2-31.7ZM902.9,562.3c0-12.6-7-20.4-18.3-20.4s-18.2,7.9-18.2,20.4,6.9,20.2,18.2,20.2,18.3-7.7,18.3-20.2Z"/>
        <path class="st0" d="M926.9,561.8c0-18.6,11.6-31.4,29.9-31.4s18.8,4.6,21.3,11.8h.1v-35.7h14v86.4h-14c.3-3.6.4-9,.6-15h-.3c-2.4,9.7-10.1,16-22.7,16-17.8,0-29-13-29-32.2ZM978.3,562.8v-3c0-11-7.6-17.9-19.2-17.9s-18.3,8.2-18.3,19.9,7.1,20.7,18.1,20.7,19.4-7.7,19.4-19.7Z"/>
        <path class="st0" d="M1006.6,531.4h14l-.5,17.7h.1c2.9-11.1,9.2-18.7,21.9-18.7s20.7,8.7,20.7,24.1-.4,8.9-.6,11.5h-12.7c.2-2.4.5-5.5.5-8.4,0-10.3-4-15.2-12.2-15.2s-17.2,9-17.2,23.7v26.9h-14v-61.6Z"/>
        <path class="st0" d="M1075.3,531.4h14v61.6h-14v-61.6ZM1085.1,507.6h14.6l-13.3,17.4h-11l9.7-17.4Z"/>
        <path class="st0" d="M1167.4,598.8c0,13-12.1,20.7-32.4,20.7s-33.3-6.4-33.3-17.4,4.6-10.8,12-11.2h0c-3.5-2.5-5.4-5.9-5.4-10.2s2.4-8.8,5.7-10.5v-.2c-6.1-3.7-9.5-9.8-9.5-17.6,0-13.5,10.5-21.9,27.4-21.9s12.7,1.4,17.2,4h.1c-1.9-2.1-3-4.5-3-7.1,0-5,4.7-8.1,12.1-8.1s4.7.3,6.2.6v9.8c-1-.4-2.4-.6-4.1-.6-4.1,0-6.1,1.7-6.1,5.1s.6,3.9,1.4,6.2c2.4,3.2,3.6,7.4,3.6,12,0,13.6-10.5,21.9-27.4,21.9s-7.6-.5-10.8-1.4c-.7.9-1.5,2.6-1.5,4.7,0,3.5,2.5,5.6,7,5.6h19.9c13.2,0,20.8,5.7,20.8,15.6ZM1153.4,600.4c0-4.1-3.1-6.4-9.7-6.4h-16.7c-7,0-11.5,2.1-11.5,6.9s7.5,8.7,19.3,8.7,18.6-3.7,18.6-9.2ZM1117.9,552.3c0,7.4,5.4,12,14.1,12s14.1-4.6,14.1-12-5.4-12-14.1-12-14.1,4.6-14.1,12Z"/>
        <path class="st0" d="M1177.7,568.8v-37.4h14v35.4c0,9.7,6,15.2,16.1,15.2s20.3-8.4,20.3-23.3v-27.3h14v61.6h-14c.4-4.1.6-10.7.6-17.2h-.1c-2.6,11.7-11.2,18.2-24.9,18.2s-25.9-8.8-25.9-25.2Z"/>
        <path class="st0" d="M1314.3,564.9h-46.1c.8,11.8,7.4,18.2,17.8,18.2s15.1-4,15.7-11.2h12.6c-.5,13.7-11.7,22.1-28.5,22.1s-31.7-12-31.7-31.3,12.2-32.3,31.7-32.3,28.5,10.3,28.5,29.5v5ZM1301.7,555.6c0-9.2-5.7-14.3-15.8-14.3s-15.7,5-17.3,15.2h33.2v-.9Z"/>
        <path class="st0" d="M1322.7,584.2l33.9-41.3v-.3h-32.9v-11.3h51.1v8.6l-34,41.5h0c0,.1,34,.1,34,.1v11.3h-52.1v-8.7Z"/>
      </g>
      <g>
        <path class="st0" d="M775.7,680.1h-2.9v-30.2h8.9c2.9,0,5.3.7,7,2,1.7,1.3,2.6,3.4,2.6,6.1s-.6,3.9-1.9,5.3c-1.3,1.4-3.1,2.3-5.5,2.5l8.3,14.3h-3.6l-7.9-14h-4.9v14ZM775.7,663.3h5.2c1.3,0,2.4-.1,3.3-.4.9-.3,1.6-.7,2.2-1.1.5-.5.9-1,1.2-1.7.2-.6.4-1.3.4-2.1s-.1-1.4-.4-2c-.2-.6-.6-1.2-1.2-1.7-.5-.5-1.3-.9-2.2-1.1-.9-.3-2-.4-3.3-.4h-5.2v10.5Z"/>
        <path class="st0" d="M809.3,677.3h15.5v2.8h-18.4v-30.2h17.9v2.8h-15v10.3h14v2.8h-14v11.5Z"/>
        <path class="st0" d="M840,649.9h2.9v13.1h15.8v-13.1h2.9v30.2h-2.9v-14.3h-15.8v14.3h-2.9v-30.2Z"/>
        <path class="st0" d="M878.3,680.1h-3.4l12.6-30.2h2.9l12.6,30.2h-3.4l-3.2-7.9h-14.8l-3.2,7.9ZM882.6,669.4h12.6l-6.3-15.9-6.3,15.9Z"/>
        <path class="st0" d="M916.2,649.9h8.6c1.2,0,2.4.1,3.5.4,1.1.3,2.1.7,3,1.3.9.6,1.6,1.4,2.1,2.3.5,1,.8,2.2.8,3.6s-.4,3.1-1.3,4.2c-.9,1.2-2.1,2-3.8,2.4h0c2,.3,3.6,1,4.8,2.3,1.2,1.3,1.7,3.1,1.7,5.3s-.1,1.2-.3,2.1c-.2.9-.7,1.9-1.5,2.8-.7.9-1.8,1.7-3.2,2.4-1.4.7-3.2,1-5.6,1h-8.8v-30.2ZM919.2,663.1h5.9c.7,0,1.4,0,2.1-.3.7-.2,1.3-.5,1.9-.9.6-.4,1-1,1.4-1.6.4-.7.5-1.5.5-2.5s0-.7-.2-1.3c-.1-.6-.4-1.1-.8-1.7-.4-.6-1-1.1-1.9-1.5-.8-.4-1.9-.6-3.3-.6h-5.6v10.4ZM919.2,677.3h5.6c1.1,0,2.1-.1,3-.3s1.7-.6,2.4-1c.7-.5,1.2-1.1,1.6-1.8.4-.7.6-1.6.6-2.6,0-2-.6-3.5-1.8-4.4-1.2-1-3-1.4-5.4-1.4h-6v11.6Z"/>
        <path class="st0" d="M954.3,680.1h-2.9v-30.2h2.9v30.2Z"/>
        <path class="st0" d="M974.5,677.3h13.5v2.8h-16.4v-30.2h2.9v27.4Z"/>
        <path class="st0" d="M1004.3,680.1h-2.9v-30.2h2.9v30.2Z"/>
        <path class="st0" d="M1030.8,680.1h-2.9v-27.4h-9.7v-2.8h22.3v2.8h-9.7v27.4Z"/>
        <path class="st0" d="M1051,680.1h-3.4l12.6-30.2h2.9l12.6,30.2h-3.4l-3.2-7.9h-14.8l-3.2,7.9ZM1055.3,669.4h12.6l-6.3-15.9-6.3,15.9Z"/>
        <path class="st0" d="M1112.8,675.3c-.5.8-1.1,1.5-1.8,2.2-.7.7-1.5,1.3-2.5,1.8-.9.5-1.9.9-3,1.2-1.1.3-2.2.4-3.4.4-2.2,0-4.1-.4-6-1.2-1.8-.8-3.4-1.9-4.8-3.3-1.3-1.4-2.4-3.1-3.2-5-.8-1.9-1.1-4.1-1.1-6.4s.4-4.4,1.1-6.4c.8-1.9,1.8-3.6,3.2-5,1.3-1.4,2.9-2.5,4.8-3.3,1.8-.8,3.8-1.2,6-1.2s3.6.4,5.4,1.1c1.8.7,3.3,2,4.6,3.7l-2.6,2c-.3-.5-.7-1-1.2-1.5-.5-.5-1.1-.9-1.8-1.3-.7-.4-1.4-.7-2.1-.9s-1.5-.3-2.3-.3c-1.9,0-3.5.4-5,1.1-1.5.7-2.7,1.7-3.7,2.9-1,1.2-1.8,2.6-2.3,4.2-.5,1.6-.8,3.2-.8,5s.3,3.4.8,5c.5,1.6,1.3,3,2.3,4.2,1,1.2,2.3,2.1,3.7,2.9,1.5.7,3.1,1.1,5,1.1s1.5,0,2.3-.2c.7-.1,1.5-.4,2.2-.7.7-.3,1.4-.8,2-1.4.6-.6,1.2-1.3,1.8-2.2l2.4,1.8Z"/>
        <path class="st0" d="M1130,680.1h-2.9v-30.2h2.9v30.2Z"/>
        <path class="st0" d="M1175.4,665c0,2.3-.4,4.4-1.1,6.4-.8,1.9-1.8,3.6-3.2,5-1.3,1.4-2.9,2.5-4.8,3.3s-3.8,1.2-6,1.2-4.1-.4-6-1.2-3.4-1.9-4.8-3.3c-1.3-1.4-2.4-3.1-3.2-5-.8-1.9-1.1-4.1-1.1-6.4s.4-4.4,1.1-6.4c.8-1.9,1.8-3.6,3.2-5,1.3-1.4,2.9-2.5,4.8-3.3s3.8-1.2,6-1.2,4.1.4,6,1.2,3.4,1.9,4.8,3.3c1.4,1.4,2.4,3.1,3.2,5,.8,1.9,1.1,4.1,1.1,6.4ZM1172.3,665c0-1.7-.3-3.4-.8-5-.5-1.6-1.3-3-2.4-4.2-1-1.2-2.3-2.1-3.7-2.9-1.5-.7-3.1-1.1-5-1.1s-3.5.4-5,1.1c-1.5.7-2.7,1.7-3.7,2.9-1,1.2-1.8,2.6-2.3,4.2-.5,1.6-.8,3.2-.8,5s.3,3.4.8,5c.5,1.6,1.3,3,2.3,4.2,1,1.2,2.3,2.1,3.7,2.9,1.5.7,3.1,1.1,5,1.1s3.5-.4,5-1.1c1.5-.7,2.7-1.7,3.7-2.9,1-1.2,1.8-2.6,2.4-4.2.5-1.6.8-3.2.8-5ZM1160.3,648.6h-2.4l4.1-6.1h3.7l-5.4,6.1Z"/>
        <path class="st0" d="M1211.6,675.5h0v-25.6h2.9v30.2h-3.7l-17.3-25.9h0v25.9h-2.9v-30.2h3.7l17.3,25.6Z"/>
        <path class="st0" d="M1280.8,665c0,2.3-.4,4.4-1.1,6.4-.8,1.9-1.8,3.6-3.2,5-1.3,1.4-2.9,2.5-4.8,3.3-1.8.8-3.8,1.2-6,1.2s-4.1-.4-6-1.2c-1.8-.8-3.4-1.9-4.8-3.3-1.3-1.4-2.4-3.1-3.2-5-.8-1.9-1.1-4.1-1.1-6.4s.4-4.4,1.1-6.4c.8-1.9,1.8-3.6,3.2-5,1.3-1.4,2.9-2.5,4.8-3.3,1.8-.8,3.8-1.2,6-1.2s4.1.4,6,1.2c1.8.8,3.4,1.9,4.8,3.3,1.4,1.4,2.4,3.1,3.2,5,.8,1.9,1.1,4.1,1.1,6.4ZM1277.6,665c0-1.7-.3-3.4-.8-5-.5-1.6-1.3-3-2.4-4.2-1-1.2-2.3-2.1-3.7-2.9-1.5-.7-3.1-1.1-5-1.1s-3.5.4-5,1.1c-1.5.7-2.7,1.7-3.7,2.9-1,1.2-1.8,2.6-2.3,4.2-.5,1.6-.8,3.2-.8,5s.3,3.4.8,5c.5,1.6,1.3,3,2.3,4.2,1,1.2,2.3,2.1,3.7,2.9,1.5.7,3.1,1.1,5,1.1s3.5-.4,5-1.1c1.5-.7,2.7-1.7,3.7-2.9,1-1.2,1.8-2.6,2.4-4.2.5-1.6.8-3.2.8-5Z"/>
        <path class="st0" d="M1299,680.1h-2.9v-30.2h8.9c2.9,0,5.3.7,7,2,1.7,1.3,2.6,3.4,2.6,6.1s-.6,3.9-1.9,5.3c-1.3,1.4-3.1,2.3-5.5,2.5l8.3,14.3h-3.6l-7.9-14h-4.9v14ZM1299,663.3h5.2c1.3,0,2.4-.1,3.3-.4.9-.3,1.6-.7,2.2-1.1.5-.5.9-1,1.2-1.7.2-.6.4-1.3.4-2.1s-.1-1.4-.4-2c-.2-.6-.6-1.2-1.2-1.7-.5-.5-1.3-.9-2.2-1.1-.9-.3-2-.4-3.3-.4h-5.2v10.5Z"/>
        <path class="st0" d="M1329.2,680.1h-3.4l12.6-30.2h2.9l12.6,30.2h-3.4l-3.2-7.9h-14.8l-3.2,7.9ZM1333.5,669.4h12.6l-6.3-15.9-6.3,15.9Z"/>
        <path class="st0" d="M1370,677.3h13.5v2.8h-16.4v-30.2h2.9v27.4Z"/>
      </g>
    </g>
  </g>
</svg>